<svg width="119" height="74" xmlns="http://www.w3.org/2000/svg" xmlns:xlink="http://www.w3.org/1999/xlink">
    <defs>
        <linearGradient x1="50%" y1="0%" x2="50%" y2="100%" id="b">
            <stop stop-color="#90A6C6" offset="0%"/>
            <stop stop-color="#FFF" offset="100%"/>
        </linearGradient>
        <path id="a" d="M0 1.201h117.844V74.2H0z"/>
    </defs>
    <g transform="translate(-2 -33)" fill="none" fill-rule="evenodd">
        <circle cx="62.3" cy="63.7" r="62.3"/>
        <path d="M0 0h126v126H0z"/>
        <g transform="translate(2.8 32.4)">
            <mask id="c" fill="#fff">
                <use xlink:href="#a"/>
            </mask>
            <path d="M55.235 1.2c2.02.496 4.622.784 6.923 1.767 5.883 2.515 8.02 8.981 5.038 14.648-.756 1.435-1.865 2.688-2.604 4.13-.534 1.04-.724 2.257-1.067 3.395 1.205.233 2.482.845 3.606.635 6.527-1.217 12.992-2.78 19.532-3.93 6.323-1.112 12.763-2.034 19.019.225 12.268 4.428 16.15 18.465 7.488 28.077-6.39 7.091-13.298 13.741-20.283 20.258-5.368 5.01-10.186 4.97-16.003.409-2.65-2.078-4.976-4.567-7.488-6.826-1.526-1.372-1.723-2.625-.025-4.032.89-.74 1.689-1.616 2.42-2.519 1.352-1.666 2.508-1.607 4.003-.052 2.014 2.096 4.26 3.968 6.391 5.95 1.64 1.522 3.251 1.66 4.899.011 6.51-6.52 13.217-12.853 19.474-19.608 4.138-4.467 1.918-11.033-4.098-13.1-5.934-2.037-11.77-.207-17.6.801-6.754 1.169-13.459 3.056-20.254 3.452-8.86.517-13.558-8-9.24-15.78.732-1.318 1.685-2.513 2.53-3.768 1.978-2.94 1.22-4.84-2.333-4.558-4.725.375-9.507 1.15-14.045 2.493-7.815 2.313-15.512 5.054-23.146 7.914-2.666 1-5.145 2.693-7.442 4.422-1.981 1.49-2.105 3.528-.217 5.412 5.283 5.275 10.497 10.62 15.913 15.753.863.816 2.63.676 3.978.977-.27-1.322-.305-2.751-.857-3.944-1.295-2.805-3.436-5.356-4.133-8.272-.99-4.137.702-7.85 4.286-10.35 3.803-2.652 7.922-2.65 11.922-.558 1.823.954 3.466 2.37 4.956 3.818 5.181 5.037 10.19 10.255 15.415 15.246 2.01 1.92 2.103 3.392-.033 5.103a11.271 11.271 0 0 0-1.733 1.723c-1.557 1.934-2.922 1.715-4.588-.004-4.79-4.938-9.697-9.76-14.557-14.627-.412-.413-.76-.983-1.258-1.198-1.556-.668-3.96-2.154-4.613-1.612-2.087 1.736.171 3.257 1.245 4.59 5.695 7.062 4.873 15.257-2.092 18.758-4.84 2.433-9.538 1.399-13.298-2.093C15.037 48.55 9.04 42.493 3.214 36.296c-4.177-4.441-4.372-11.08-.057-15.588 2.972-3.105 6.732-6.031 10.708-7.489C25.004 9.134 36.42 5.795 47.77 2.305c2.194-.675 4.59-.699 7.466-1.105" fill="url(#b)" mask="url(#c)"/>
        </g>
        <path d="M76.168 82.516c.062 2.097-9.468 11.65-11.541 11.323-1.008-.16-2.336-.932-2.708-1.784-.423-.967-.409-2.746.221-3.453 2.704-3.027 5.551-5.969 8.65-8.585 2.123-1.794 5.298-.137 5.378 2.499" fill="#C3FB12"/>
    </g>
</svg>
