<svg width="122" height="95" xmlns="http://www.w3.org/2000/svg" xmlns:xlink="http://www.w3.org/1999/xlink">
    <defs>
        <linearGradient x1="50%" y1="0%" x2="50%" y2="100%" id="b">
            <stop stop-color="#90A6C6" offset="0%"/>
            <stop stop-color="#FFF" offset="100%"/>
        </linearGradient>
        <linearGradient x1="50%" y1="0%" x2="50%" y2="100%" id="d">
            <stop stop-color="#90A6C6" offset="0%"/>
            <stop stop-color="#FFF" offset="100%"/>
        </linearGradient>
        <path id="a" d="M.612.821h62.511v62.251H.613z"/>
    </defs>
    <g transform="translate(0 -19)" fill="none" fill-rule="evenodd">
        <circle cx="62.3" cy="63.7" r="62.3"/>
        <path d="M0 0h126v126H0z"/>
        <g transform="translate(58.464 49.993)">
            <mask id="c" fill="#fff">
                <use xlink:href="#a"/>
            </mask>
            <path d="M31.868 5.69c-14.562 0-26.366 11.757-26.366 26.257 0 14.502 11.804 26.257 26.366 26.257S58.234 46.45 58.234 31.947c0-14.5-11.804-26.256-26.366-26.256m31.255 26.256c0 17.19-13.994 31.125-31.255 31.125C14.606 63.072.612 49.136.612 31.947.612 14.757 14.606.82 31.868.82c17.261 0 31.255 13.936 31.255 31.126" fill="url(#b)" mask="url(#c)"/>
        </g>
        <path d="M91.969 80.966a1.91 1.91 0 0 0-2.615-.655 1.893 1.893 0 0 0-.66 2.604c.541.9 1.712 1.193 2.617.655a1.894 1.894 0 0 0 .658-2.604zm1.768 1.538a3.436 3.436 0 0 1-1.626 2.4 3.467 3.467 0 0 1-2.5.404l-2.573 1.747-2.788-4.643 2.762-1.43a3.425 3.425 0 0 1 1.54-2.004 3.454 3.454 0 0 1 2.892-.29l16.404-8.495 1.163 1.936-15.274 10.375z" fill="#FFF"/>
        <path d="M92.938 95.71c-.35-2.262-.801-4.508-1.356-6.734 2.22.279 4.427.507 6.604.576a72.858 72.858 0 0 1 1.25 6.712c-2.15-.055-4.319-.275-6.498-.553m12.849.18c.297 2.26.49 4.547.58 6.855-2.073.383-4.151.5-6.238.454a75.674 75.674 0 0 0-.632-6.878c2.118.05 4.214-.058 6.29-.43m5.054-8.627a66.16 66.16 0 0 1 1.232 6.51 23.1 23.1 0 0 1-6.242 2.052 70.322 70.322 0 0 0-1.197-6.64c2.114-.35 4.19-.961 6.207-1.922M87.31 101.75a76.395 76.395 0 0 0-.861-6.87c2.15.277 4.3.607 6.444.88.349 2.28.599 4.577.74 6.885-2.103-.275-4.212-.608-6.324-.895m-7.463-7.502a72.957 72.957 0 0 0-1.585-6.626c2.194.026 4.415.227 6.642.49a74.63 74.63 0 0 1 1.48 6.707c-2.187-.282-4.371-.508-6.537-.571m-5.347 7.202a72.657 72.657 0 0 0-1.018-6.756c2.077-.355 4.192-.452 6.32-.393.43 2.255.751 4.534.972 6.828-2.103-.08-4.198-.008-6.274.32m-9.237-11.372c.292.891.632 1.76 1.013 2.609a63.412 63.412 0 0 0-.667-2.395 22.879 22.879 0 0 1 6.176-2.134 68.007 68.007 0 0 1 1.632 6.492c-1.768.304-3.513.81-5.224 1.543 1.356 2.085 3 3.965 4.878 5.588.461-.1.921-.193 1.384-.267.049.491.076.986.117 1.48a26.345 26.345 0 0 0 6.558 3.557 76.437 76.437 0 0 0-.3-5.362c2.14.084 4.288.323 6.432.614.164 2.072.229 4.155.224 6.241.935.1 1.884.155 2.847.155 1.177 0 2.337-.085 3.473-.234a76.497 76.497 0 0 0-.118-5.255c2.137.279 4.268.497 6.39.547.046 1.016.064 2.035.069 3.055a26.428 26.428 0 0 0 12.27-10.035c-.086-.828-.168-1.656-.282-2.473.799-.4 1.59-.873 2.376-1.389a26.01 26.01 0 0 0 2.161-9.503c-.02.021-.045.042-.068.065h-.001c-15.001 14.196-35.275-1.486-51.34 7.101" fill="#FFF"/>
        <path d="M34.039 18.364c.836-.054 1.635-.236 2.412-.417.883-.206 1.72-.398 2.596-.398.635 0 1.181.105 1.649.27-.747-1.49-.968-2.99-1.158-4.284-.268-1.818-.499-3.387-1.905-5.324-1.991-2.745-5.22-3.498-6.714-3.704a17.272 17.272 0 0 1-3.305 1.548c3.466.194 8.101.786 8.945 6.01.32 1.984-.17 3.803-1.414 5.259a7.052 7.052 0 0 1-1.106 1.04M18.233 34.332a12.71 12.71 0 0 0 3.051-.367c2.134-.524 3.311-1.162 4.672-1.903.822-.448 1.671-.91 2.738-1.355.432-.18.926-.35 1.462-.505l-.026-.006c-2.688-.7-4.354-2.633-5.963-4.503-.323-.372-.64-.74-.958-1.093a7.893 7.893 0 0 1-.044 2.335c-.687 4.01-4.163 6.738-8.703 6.88a14.29 14.29 0 0 0 3.77.517M33.472 45.04c2.708 0 5.3-.7 7.702-2.08 3.034-1.743 4.645-3.355 5.94-4.652 1.386-1.386 2.82-2.822 5.094-2.822.912 0 1.833.24 2.817.739 3.115 1.58 3.23 4.741 3.03 7.77A34.05 34.05 0 0 1 81.69 26.503a20.97 20.97 0 0 0-2.78-.173c-2.408 0-4.761.338-7.037.667-2.004.29-3.894.56-5.625.56-1.97 0-3.553-.368-4.843-1.125-3.643-2.135-4.318-6.07-4.86-9.234-.273-1.595-.582-3.403-1.2-4.05-.85-.888-1.524-1.195-2.5-1.311.846.97 1.49 2.317 1.531 4.293.04 1.8-.59 3.455-1.771 4.655-1.171 1.188-2.777 1.845-4.525 1.845-1.518 0-3.033-.498-4.386-1.42a5.919 5.919 0 0 1-.398 4.745c-.838 1.569-2.355 2.83-4.266 3.65 2.449.58 3.475 1.936 3.894 3.12.562 1.598.356 3.356-.583 4.949-1.455 2.474-4.518 4.277-8.401 4.948a19.858 19.858 0 0 1-3.419.287c-1.03 0-2.028-.073-3.004-.177.96.7 1.657 1.34 2.121 1.812.73.2 2.101.496 3.833.496m-3.598-11.542c-2.642 1.104-3.991 2.458-7.86 3.41C12.641 39.21 2.335 32.473 0 22.93c17.352 17.866 27.933.394 13.383-4.692 11.594-1.562 12.518 7.724 17.515 9.028 5.75 1.499 12.179-1.991 9.413-6.094-1.647-2.442-7.196 3.906-14.579-3.476 0 0 8.655-.006 7.825-5.152C32.324 4.918 17.4 14.685 14.66.002c4.952 4.125 9.82 5.225 15.49 1.4 0 0 6.32.037 9.946 5.035 3.606 4.971 1.388 8.598 4.464 11.577 2.982 2.884 6.845 1.574 6.775-1.822-.094-4.635-4.961-2.521-7.915-9.403 6.442 3.852 9.95-.095 14.125 4.271 2.872 3.004 1.089 10.234 5.402 12.764 3.821 2.241 12.006-1.72 20.277-.14 6.452 1.234 10.845 4.492 12.494 6.146a31.273 31.273 0 0 0-7.515-.919c-16.586 0-30.131 12.97-30.968 29.279-5.365-8.793.213-17.338-3.592-19.266-3.407-1.726-3.316 2.274-10.95 6.66-7.705 4.426-14.773 1.59-14.773 1.59s-1.835-2.433-6.486-4.36c-4.648-1.924-9.555-.534-9.555-.534s2.531-3.397 8.275-3.319c5.054.07 8.69 1.468 13.267.676 5.073-.877 7.38-3.79 6.632-5.906-.812-2.297-7.707-1.268-10.18-.233" fill="url(#d)" transform="translate(0 19.6)"/>
        <path d="m91.439 77.79 15.917-8.48c-3.875-5.17-10.048-8.534-17.025-8.534-11.736 0-21.251 9.476-21.251 21.164 5.006-7.715 14.404-12.071 22.359-4.15" fill="#C3FB12"/>
    </g>
</svg>
