<svg width="106" height="96" xmlns="http://www.w3.org/2000/svg" xmlns:xlink="http://www.w3.org/1999/xlink">
    <defs>
        <linearGradient x1="50%" y1="0%" x2="50%" y2="100%" id="a">
            <stop stop-color="#90A6C6" offset="0%"/>
            <stop stop-color="#FFF" offset="100%"/>
        </linearGradient>
        <linearGradient x1="50%" y1="0%" x2="50%" y2="100%" id="b">
            <stop stop-color="#90A6C6" offset="0%"/>
            <stop stop-color="#FFF" offset="100%"/>
        </linearGradient>
        <linearGradient x1="50%" y1="0%" x2="50%" y2="100%" id="c">
            <stop stop-color="#90A6C6" offset="0%"/>
            <stop stop-color="#FFF" offset="100%"/>
        </linearGradient>
        <linearGradient x1="112.052%" y1="116.806%" x2="-20.434%" y2="14.66%" id="e">
            <stop stop-color="#C3FB12" offset="0%"/>
            <stop stop-color="#FFF" offset="100%"/>
        </linearGradient>
        <path id="d" d="M0 0h37.06v31.156H0z"/>
    </defs>
    <g transform="translate(-11 -12)" fill="none" fill-rule="evenodd">
        <circle cx="63.7" cy="63.7" r="62.3"/>
        <path d="M0 0h126v126H0z"/>
        <g transform="translate(11.2 12)">
            <rect fill="url(#a)" x="35.983" y="37.163" width="33.034" height="58.399" rx="3.539"/>
            <rect fill="url(#b)" x="71.966" y="62.528" width="33.034" height="33.034" rx="3.539"/>
            <rect fill="url(#c)" y="51.32" width="33.034" height="44.242" rx="3.539"/>
            <path d="M45.929 56.69v-2.902c0-.401.177-.708.53-.92l3.221-2.018c.543-.33 1.003-.496 1.38-.496h2.832c.496 0 .743.248.743.744v21.271c0 .283-.053.478-.159.584-.106.106-.289.16-.548.16h-3.044c-.496 0-.744-.248-.744-.744V55.133l-3.468 1.982c-.496.212-.743.07-.743-.425zM87.522 76.982h1.805c.778 0 1.339-.16 1.68-.478.343-.318.514-.843.514-1.575v-1.663c0-.732-.171-1.257-.513-1.575-.342-.319-.903-.478-1.681-.478h-1.7c-.754 0-1.285.16-1.592.478-.307.318-.46.843-.46 1.575v.885c0 .495-.248.743-.743.743h-3.009c-.495 0-.743-.248-.743-.743v-.956c0-1.84.507-3.256 1.522-4.247 1.015-.991 2.454-1.487 4.318-1.487h3.15c1.864 0 3.303.496 4.318 1.487 1.015.99 1.522 2.406 1.522 4.247v1.77c0 1.982-.932 3.268-2.796 3.857 1.864.402 2.796 1.688 2.796 3.858v1.805c0 1.84-.507 3.257-1.522 4.248-1.015.99-2.454 1.486-4.318 1.486h-3.15c-1.864 0-3.303-.495-4.318-1.486-1.015-.991-1.522-2.407-1.522-4.248v-.99c0-.52.248-.78.743-.78h3.009c.495 0 .743.26.743.78v.92c0 .755.153 1.286.46 1.592.307.307.838.46 1.593.46h1.699c.778 0 1.339-.159 1.68-.477.343-.319.514-.844.514-1.575V82.68c0-.731-.171-1.256-.513-1.575-.342-.318-.903-.477-1.681-.477h-1.805c-.496 0-.744-.248-.744-.744v-2.123c0-.52.248-.779.744-.779zM10.93 84.757v-3.363c0-1.345.579-2.489 1.735-3.433l6.512-5.521c1.062-.873 1.593-1.817 1.593-2.832v-1.061c0-.732-.171-1.257-.513-1.575-.342-.319-.903-.478-1.681-.478h-1.24c-.754 0-1.285.16-1.592.478-.307.318-.46.843-.46 1.575v1.132c0 .52-.248.779-.743.779h-3.009c-.495 0-.743-.26-.743-.779v-1.203c0-1.84.507-3.256 1.522-4.247 1.015-.991 2.454-1.487 4.318-1.487h2.69c1.864 0 3.303.496 4.318 1.487 1.014.99 1.522 2.406 1.522 4.247v1.416c0 1.84-.708 3.362-2.124 4.565l-6.654 5.663c-.283.26-.425.543-.425.85v.566h8.46c.495 0 .743.248.743.743v2.478c0 .495-.248.743-.744.743H11.674c-.496 0-.743-.248-.743-.743z" fill="#000" fill-rule="nonzero"/>
            <g transform="translate(33.034)">
                <mask id="f" fill="#fff">
                    <use xlink:href="#d"/>
                </mask>
                <path d="M33.91 2.968c-1.48 0-2.955-.254-4.232.136-.46.14-.447 1.833-.647 2.818-.03.144-.045.29-.072.435l-1.194 6.436c2.64-.278 5.89-5.911 6.145-9.825M9.372 12.745l-.295-1.522c-.333-1.732-.76-3.453-.976-5.2-.445-3.607.268-3.134-3.633-3.178-.05 0-.098.004-.147 0-.891-.048-1.31.286-1.024 1.23.272.889.453 1.814.8 2.673 1.022 2.533 2.44 4.768 5.275 5.997m16.435 18.411h-14.52l-.15-.291c.363-.246.703-.536 1.092-.726.88-.431 1.783-.814 2.678-1.214 1.356-.607 2.5-1.394 2.589-3.069.102-1.916-.217-3.385-1.965-4.832-2.994-2.477-6.125-4.654-9.362-6.789-3.465-2.284-4.81-6.2-5.707-10.155C.278 3.268.188 2.434.045 1.612-.149.482.27-.078 1.465.008c.588.043 1.18.01 1.769.01C13.89.018 24.546.017 35.203.02c1.854 0 1.997.101 1.78 1.903-.473 3.915-1.574 7.677-4.293 10.604-1.456 1.566-3.498 2.587-5.28 3.85-.884.627-1.82 1.19-2.654 1.88-1.127.93-2.055 2.16-3.289 2.885-1.846 1.086-1.872 2.683-1.857 4.446.012 1.603.906 2.531 2.22 3.176.922.454 1.88.837 2.809 1.282.447.215.86.5 1.289.753l-.121.356" fill="url(#e)" mask="url(#f)"/>
            </g>
        </g>
    </g>
</svg>
