<svg width="112" height="89" xmlns="http://www.w3.org/2000/svg" xmlns:xlink="http://www.w3.org/1999/xlink">
    <defs>
        <linearGradient x1="76.649%" y1="54.335%" x2="19.973%" y2="45.665%" id="b">
            <stop stop-color="#90A6C6" offset="0%"/>
            <stop stop-color="#FFF" offset="100%"/>
        </linearGradient>
        <linearGradient x1="111.084%" y1="144.519%" x2="-19.336%" y2="0%" id="d">
            <stop stop-color="#C3FB12" offset="0%"/>
            <stop stop-color="#FFF" offset="100%"/>
        </linearGradient>
        <linearGradient x1="111.545%" y1="144.519%" x2="-19.859%" y2="0%" id="e">
            <stop stop-color="#C3FB12" offset="0%"/>
            <stop stop-color="#FFF" offset="100%"/>
        </linearGradient>
        <path id="a" d="M0 .183h110.182v32.442H0z"/>
    </defs>
    <g transform="translate(-7 -19)" fill="none" fill-rule="evenodd">
        <circle cx="63.7" cy="63.7" r="62.3"/>
        <path d="M0 0h126v126H0z"/>
        <g transform="translate(7 19.6)">
            <mask id="c" fill="#fff">
                <use xlink:href="#a"/>
            </mask>
            <path d="M2.768 21.06c.232.909.273 1.442.497 1.881.783 1.54 1.815 2.872 3.73 1.777 1.293-.74 2.398-1.818 3.586-2.746-1.4-.385-2.782-.908-4.207-1.109-1.084-.153-2.223.106-3.606.198m32.173-10.922c.745.476.92.687 1.095.688 9.644.056 19.291.214 28.93.02 1.704-.034 3.379-1.55 5.781-2.735-1.459-.744-1.883-1.099-2.355-1.183-5.17-.906-10.396-1.556-15.513-2.702-7.125-1.594-12.24 2.227-17.938 5.912m65.858 21.665c2.543-6.41 2.298-12.267-4.144-16.335-3.727-2.353-8.98-2.043-12.402.742-5.233 4.258-5.43 9.646-2.755 15.876H33.924c2.677-6.283 2.573-11.921-3.134-16.1-3.69-2.704-7.884-2.96-11.83-.63-6.683 3.946-6.99 9.942-4.39 16.494-6.38 1.74-8.988.689-11.958-4.606-3.887-6.929-3.893-6.94 3.115-10.417 6.389-3.171 13.043-5.453 20.179-6.204 1.107-.116 2.327-.583 3.205-1.267C41.6-.378 55.633-1.583 70.333 2.107c12.043 3.022 23.935 6.652 35.914 9.935 3.051.835 4.536 2.243 3.71 5.732-.742 3.135-.928 6.406-1.33 9.621-.592 4.722-2.694 5.985-7.828 4.41" fill="url(#b)" mask="url(#c)"/>
        </g>
        <path d="M12.235 95.857c5.216 1.088 8.667-.241 9.719-3.416.507-1.53.293-2.834-1.591-2.462-3.393.668-6.361 2.162-8.128 5.878m40.95-11.784h32.512c-.183-.626-.184-1.01-.374-1.214-.584-.622-1.198-1.232-1.875-1.745-5.42-4.116-11.604-5.767-18.311-5.737-5.43.023-9.703 3.045-11.952 8.696m55.359 9.398c1.467 2.304 3.263 4.85 4.77 7.558 1.701 3.06.759 4.631-2.701 4.932-.533.047-1.071.038-1.608.05-4.927.097-4.864.1-4.555-4.809.31-4.904-1.863-8.647-5.989-11.026-4.296-2.476-8.704-2.218-12.679.829-3.792 2.908-5.693 6.902-4.535 11.649.696 2.857-.092 3.386-2.648 3.366-9.76-.083-19.52-.031-29.279-.055-.924-.002-1.848-.183-2.246-.226-.317-3.435-.083-6.622-.98-9.442-1.803-5.663-7.976-8.825-13.346-7.409-6.128 1.615-9.775 6.881-9.054 13.068.469 4.017.469 4.02-3.652 4.036-1.501.007-3.003.024-4.505-.01-6.205-.143-9.12-5.212-6.138-10.808 2.928-5.497 8.084-8.145 13.71-9.273 6.582-1.32 13.338-1.84 20.044-2.392 2.282-.188 4.202-.473 5.6-2.419.248-.344.659-.572.9-.92 6.575-9.473 15.963-9.504 25.933-8.062 9.092 1.317 16.514 5.806 23.12 11.855 2.254 2.065 4.399 3.157 7.478 2.278 1.728-.493 3.606-.526 5.424-.605.879-.037 2.371.07 2.536.511.33.88.33 2.417-.233 3.006-1.474 1.543-3.323 2.725-5.367 4.318" fill="#C3FB12"/>
        <path d="M85.758 100.645c-.068-3.905 2.89-7.058 6.721-7.167 3.847-.11 7.152 2.899 7.3 6.644.152 3.824-3.17 7.36-6.98 7.431-3.772.072-6.974-3.071-7.041-6.908M42.222 100.643c-.06 3.828-3.242 6.992-7.02 6.974-3.641-.017-6.95-3.38-6.99-7.11-.04-3.867 3.327-7.12 7.281-7.032 3.834.083 6.791 3.232 6.73 7.168" fill="#FFF"/>
        <path d="M30.993 25.336c-.033 3.543-3.039 6.529-6.59 6.542-3.779.016-6.674-2.987-6.56-6.8.106-3.59 3.142-6.534 6.657-6.456 3.43.078 6.522 3.278 6.493 6.714" fill="url(#d)" transform="translate(7 19.6)"/>
        <path d="M90.952 31.88c-3.55-.055-6.566-3.113-6.517-6.607.052-3.653 3.31-6.805 6.87-6.65 3.472.153 6.416 3.333 6.336 6.844-.081 3.562-3.112 6.466-6.69 6.413z" fill="url(#e)" transform="translate(7 19.6)"/>
        <path d="M118.803 21.952c-2.412 5.505-2.855 5.743-7.429 4.825-2.615-.526-5.258-.926-7.855-1.536-.699-.163-1.268-.885-1.896-1.352.606-.646 1.197-1.832 1.823-1.851 4.957-.153 9.923-.086 15.357-.086" fill="#FFF"/>
    </g>
</svg>
