<svg width="114" height="80" xmlns="http://www.w3.org/2000/svg" xmlns:xlink="http://www.w3.org/1999/xlink">
    <defs>
        <linearGradient x1="28.326%" y1="52.408%" x2="90.567%" y2="41.384%" id="a">
            <stop stop-color="#90A6C6" offset="0%"/>
            <stop stop-color="#FFF" offset="100%"/>
        </linearGradient>
        <linearGradient x1="112.052%" y1="64.771%" x2="-20.434%" y2="42.186%" id="e">
            <stop stop-color="#C3FB12" offset="0%"/>
            <stop stop-color="#FFF" offset="100%"/>
        </linearGradient>
        <path id="b" d="M0 .443h48.174V48.23H0z"/>
        <path id="d" d="M.14.757h63.034v24.919H.14z"/>
    </defs>
    <g transform="translate(-11 -22)" fill="none" fill-rule="evenodd">
        <ellipse cx="63.5" cy="63.7" rx="62.104" ry="62.3"/>
        <path d="M0 0h125.604v126H0z"/>
        <path d="M82.992 35.651c4.923 0 9.68.235 14.4-.079 3.33-.22 4.348-2.964 3.563-5.728-.254-.896-2.84-1.6-4.34-1.563-3.171.076-6.33.707-9.494 1.095-3.888.476-5.202 2.566-4.129 6.275zm10.862-15.874c-3.162-3.965-5.765-7.788-8.962-11.02-1.752-1.77-4.47-3.513-6.815-3.6-11.886-.447-23.792-.415-35.692-.4-4.305.005-8.62-.12-11.463 4.47-2.288 3.69-5.35 6.895-8.257 10.55h71.19zm-83.416 7.758 2.828-5.08c-1.03-.627-2.2-1.02-2.883-1.827-.963-1.138-2.426-2.848-2.122-3.835.45-1.467 2.241-2.53 3.502-3.722.16-.151.576-.102.852-.043 7.268 1.554 11.775-2.219 15.224-7.974C30.1 1.287 33.362-.053 37.715.002c13.95.176 27.905.16 41.857.06 3.684-.026 6.487 1.133 8.516 4.23.637.972 1.573 1.755 2.155 2.752 2.778 4.76 6.68 6.992 12.28 6.013 1.224-.213 2.991-.19 3.754.528 1.156 1.092 2.013 2.83 2.267 4.41.119.738-1.395 1.85-2.316 2.611-.86.71-1.917 1.18-3.425 2.074 4.967 4.31 4.071 9.881 4.2 15.254.06 2.49-.578 3.729-3.386 3.705-12.366-.106-24.74.178-37.097-.167-4.181-.117-8.37-1.506-12.44-2.706-.837-.246-1.513-2.197-1.663-3.436-.679-5.592-2.828-7.748-8.46-7.785-9.312-.06-18.624-.013-27.935-.01h-5.584z" fill="url(#a)" transform="translate(11.165 22.4)"/>
        <g transform="translate(11.165 53.702)">
            <mask id="c" fill="#fff">
                <use xlink:href="#b"/>
            </mask>
            <path d="M9.156 24.264c0 1.163-.01 2.327.001 3.49.09 9.5-1.203 8.444 8.635 8.636 3.15.061 4.536-.96 4.4-4.224-.159-3.776-.027-7.564-.03-11.348-.005-8.84-.004-8.75-8.9-8.502-2.914.08-4.31 1.028-4.141 4.092.144 2.612.03 5.236.035 7.856m38.978-.075c.004 6.425-.082 12.852.038 19.276.062 3.306-1.174 4.793-4.59 4.765-11.637-.093-23.276.03-34.914-.064C4.227 48.13.124 43.936.08 39.4A1378.07 1378.07 0 0 1 .086 9.173C.138 4.698 4.357.545 8.802.513 20.439.424 32.078.53 43.715.442c3.19-.024 4.47 1.36 4.438 4.47-.068 6.425-.022 12.85-.019 19.276" fill="#C3FB12" mask="url(#c)"/>
        </g>
        <g transform="translate(61.833 65.102)">
            <mask id="f" fill="#fff">
                <use xlink:href="#d"/>
            </mask>
            <path d="M61.094 17.35c-2.157 2.765-3.509 4.431-4.785 6.153-1.981 2.672-4.445 2.792-6.761.841-1.94-1.633-3.152-1.422-5.305-.188-1.617.925-4.564.986-6.172.085-2.114-1.183-3.195-1.272-5.343-.04-1.61.924-4.485.88-6.237.06-5.35-2.505-10.526-1.812-15.891-.437a42.613 42.613 0 0 1-8.37 1.279c-.637.032-1.93-1.637-1.953-2.55C.105 16.137.067 9.708.32 3.297.357 2.363 2.21.706 3.145.758c2.632.15 5.216 1.051 7.831 1.59 1.676.345 3.374.807 5.064.817 12.794.07 25.591-.06 38.382.141 2.095.033 4.735.85 6.1 2.285 1.5 1.579 1.82 4.289 2.653 6.507-2.068.6-4.13 1.694-6.205 1.718-13.664.155-27.333.038-40.999.15-1.326.009-2.645.97-3.967 1.488 1.372.628 2.738 1.786 4.118 1.801 12.937.143 25.879.09 38.818.094l6.154.001" fill="url(#e)" mask="url(#f)"/>
        </g>
        <path d="M105.019 42.177H33.83c2.905-3.655 5.969-6.86 8.256-10.55 2.844-4.59 7.157-4.465 11.462-4.47 11.9-.015 23.807-.047 35.693.4 2.345.087 5.062 1.83 6.815 3.6 3.196 3.232 5.8 7.055 8.962 11.02M94.157 58.051c-1.074-3.709.24-5.799 4.129-6.275 3.165-.388 6.323-1.019 9.495-1.095 1.499-.037 4.085.667 4.339 1.563.785 2.764-.234 5.507-3.564 5.728-4.72.314-9.476.08-14.399.08M20.318 77.966c-.003-2.62.112-5.244-.032-7.856-.169-3.064 1.227-4.012 4.14-4.092 8.897-.247 8.896-.338 8.901 8.502.003 3.784-.129 7.572.03 11.349.136 3.264-1.25 4.284-4.4 4.223-9.839-.192-8.546.864-8.635-8.635-.011-1.164-.001-2.327-.004-3.491" fill="#000"/>
    </g>
</svg>
