<svg width="30" height="25" viewBox="0 0 30 25" xmlns="http://www.w3.org/2000/svg" xmlns:xlink="http://www.w3.org/1999/xlink">
    <defs>
        <path id="r76k22sz2a" d="M0 0h30v25H0z"/>
    </defs>
    <g fill="none" fill-rule="evenodd">
        <mask id="kgt2aiy9zb" fill="#fff">
            <use xlink:href="#r76k22sz2a"/>
        </mask>
        <path d="M29.986 1.767c-.076 1.082-.69 4.87-1.303 8.966l-1.918 12.135s-.153 1.778-1.457 2.087c-1.304.31-3.451-1.082-3.835-1.39-.306-.233-5.752-3.711-7.746-5.412-.537-.463-1.15-1.39.077-2.473 2.76-2.55 6.059-5.72 8.053-7.73.92-.927 1.84-3.092-1.994-.464L9.048 14.83s-1.227.773-3.527.077C3.22 14.21.535 13.284.535 13.284s-1.84-1.16 1.304-2.396l17.87-7.42C21.473 2.693 27.456.22 27.456.22s2.76-1.082 2.53 1.546" fill="#FFF" mask="url(#kgt2aiy9zb)"/>
    </g>
</svg>
