<svg width="28" height="22" viewBox="0 0 28 22" xmlns="http://www.w3.org/2000/svg">
    <path d="m13.596 5.852.06.952-1.011-.117c-3.682-.446-6.9-1.961-9.63-4.505L1.678.92l-.344.932C.607 3.93 1.072 6.124 2.59 7.6c.809.816.627.932-.77.447-.485-.156-.91-.272-.95-.214-.142.136.344 1.903.728 2.602.526.971 1.599 1.923 2.772 2.486l.991.447-1.173.02c-1.133 0-1.174.019-1.052.426.405 1.263 2.003 2.603 3.783 3.185l1.255.408-1.093.621a11.84 11.84 0 0 1-5.422 1.438c-.91.019-1.659.097-1.659.155 0 .194 2.468 1.282 3.905 1.709 4.309 1.262 9.428.718 13.272-1.437 2.73-1.534 5.462-4.583 6.737-7.535.688-1.573 1.375-4.447 1.375-5.826 0-.893.061-1.01 1.194-2.078.668-.621 1.295-1.301 1.416-1.495.203-.37.182-.37-.85-.039-1.72.583-1.962.505-1.112-.369.627-.621 1.376-1.748 1.376-2.078 0-.058-.304.039-.648.214-.364.194-1.173.485-1.78.66l-1.093.33-.991-.64c-.546-.35-1.315-.739-1.72-.855-1.032-.272-2.61-.233-3.54.077-2.53.874-4.127 3.127-3.945 5.593z" fill="#FFF" fill-rule="evenodd"/>
</svg>
