<?xml version="1.0" encoding="UTF-8"?>
<svg width="158px" height="48px" viewBox="0 0 158 48" version="1.1" xmlns="http://www.w3.org/2000/svg" xmlns:xlink="http://www.w3.org/1999/xlink">
    <title>apk-en</title>
    <g id="New-LandingPage" stroke="none" stroke-width="1" fill="none" fill-rule="evenodd">
        <g id="KingSpeed-LP" transform="translate(-1230.000000, -564.000000)">
            <g id="apk-en" transform="translate(1230.000000, 564.000000)">
                <path d="M10.1467121,47.99772 C9.73743227,47.99772 9.33911667,47.99196 8.93470848,47.98404 C8.0956447,47.9736 7.25855591,47.90496 6.43031273,47.77872 C5.65777652,47.6544 4.90934727,47.42292 4.20973045,47.09196 C3.51658924,46.76328 2.88444561,46.33224 2.33751424,45.8154 C1.78298212,45.30504 1.32132288,44.7132 0.970820227,44.06316 C0.616383136,43.40892 0.371136015,42.70752 0.243618045,41.98356 C0.105459614,41.20596 0.030534697,40.4196 0.0194895394,39.63132 C0.0121809621,39.36672 0,38.48484 0,38.48484 L0,9.499152 C0,9.499152 0.0121809621,8.632176 0.0194895394,8.376648 C0.0304523455,7.58952 0.104756035,6.803532 0.242400727,6.026664 C0.370004879,5.30094 0.615234045,4.597716 0.969601712,3.941352 C1.68241273,2.63562 2.81602682,1.573164 4.20973045,0.9046272 C4.90718076,0.5742588 5.65367091,0.343914 6.42422015,0.2213088 C7.25521636,0.09420456 8.09520182,0.02556672 8.9371503,0.01597068 L10.1467121,0 L147.846106,0 L149.070606,0.01482996 C149.904894,0.0250968 150.736788,0.09240204 151.560303,0.2201676 C152.338333,0.3432384 153.093621,0.5747136 153.798636,0.9069084 C155.189515,1.578168 156.320652,2.640012 157.034045,3.943632 C157.383561,4.595004 157.625348,5.293152 157.752227,6.012972 C157.889879,6.79554 157.968879,7.587228 157.984439,8.381208 C157.98803,8.735988 157.98803,9.11814 157.98803,9.498012 C158,9.968016 158,10.416336 158,10.866936 L158,37.12968 C158,37.58592 158,38.03088 157.98803,38.4792 C157.98803,38.88756 157.98803,39.26064 157.983242,39.6462 C157.967682,40.42572 157.891076,41.20308 157.753424,41.97216 C157.628939,42.70128 157.384758,43.40808 157.030455,44.06772 C156.677348,44.71068 156.217712,45.29736 155.6695,45.80628 C155.121288,46.32528 154.488091,46.7586 153.793848,47.08968 C153.09003,47.42304 152.337136,47.65536 151.560303,47.77872 C150.732,47.90532 149.895318,47.97372 149.055045,47.98404 C148.663636,47.99196 148.251879,47.99652 147.853288,47.99652 L146.400167,48 L10.1467121,47.99772 Z" id="Path" fill="#000000" fill-rule="nonzero"></path>
                <path d="M28.4642985,14.97936 C28.5145712,14.91348 28.5697515,14.85012 28.6298394,14.78988 L30.8612303,12.55296 C31.5966485,11.815668 32.7890697,11.815668 33.5244879,12.55296 C34.2599061,13.29024 34.2599061,14.48568 33.5244879,15.22296 L31.6038303,17.14848 C33.2586409,18.72756 34.2630182,20.68896 34.6562227,23.00772 C34.8741909,24.29136 34.4690167,24.78636 33.0646121,24.77412 L12.6358106,24.77988 C11.1402329,24.8022 10.6154694,24.25032 10.8711661,22.9272 C11.2827441,20.80224 12.1506788,18.98256 13.4988258,17.51196 L11.3243148,15.33192 C10.5888608,14.59464 10.5888608,13.3992 11.3243148,12.66192 C12.0597091,11.924628 13.2521303,11.924628 13.9875485,12.66192 L16.2189394,14.89884 C16.3217591,15.00192 16.4100955,15.114 16.4841879,15.23244 C16.9134212,15.00408 17.366953,14.7942 17.844903,14.60316 C21.5150515,13.13508 25.1065591,13.287 28.4642985,14.97936 Z M18.1970515,20.49624 C18.1970515,21.01764 17.7754788,21.44028 17.2553955,21.44028 C16.7354318,21.44028 16.3138591,21.01764 16.3138591,20.49624 C16.3138591,19.97496 16.7354318,19.55232 17.2553955,19.55232 C17.7754788,19.55232 18.1970515,19.97496 18.1970515,20.49624 Z M28.2647636,21.44028 C28.784847,21.44028 29.2064197,21.01764 29.2064197,20.49624 C29.2064197,19.97496 28.784847,19.55232 28.2647636,19.55232 C27.7446803,19.55232 27.3231076,19.97496 27.3231076,20.49624 C27.3231076,21.01764 27.7446803,21.44028 28.2647636,21.44028 Z" id="Shape" fill="#A4C639"></path>
                <path d="M12.2041833,35.19708 C12.6999682,35.19708 12.9647379,34.94292 13.1506273,34.28772 L13.4492712,33.36708 L16.0352045,33.36708 L16.328103,34.28772 C16.5141121,34.926 16.8013848,35.19708 17.2971697,35.19708 C17.8323348,35.19708 18.1817303,34.88076 18.1817303,34.38948 C18.1817303,34.19172 18.1309788,33.96588 18.0295955,33.64956 L16.3337288,28.65096 C16.023953,27.73032 15.595797,27.36888 14.7844909,27.36888 C13.9731848,27.36888 13.5337773,27.73596 13.2295076,28.65096 L11.5281109,33.64956 C11.3985389,34.02792 11.3478353,34.2426 11.3478353,34.42896 C11.3478353,34.88076 11.697135,35.19708 12.2041833,35.19708 Z M13.8323015,32.0172 L14.7056106,29.09712 L14.7957424,29.09712 L15.6576803,32.0172 L13.8323015,32.0172 Z" id="Shape" fill="#A4C639" fill-rule="nonzero"></path>
                <path d="M20.5835697,35.19144 C21.1807379,35.19144 21.5187621,34.82436 21.5187621,34.18608 L21.5187621,32.6724 L22.7582242,32.6724 C24.5216,32.6724 25.6033015,31.7292 25.6033015,30.04044 C25.6033015,28.45332 24.5384773,27.42528 22.8539818,27.42528 L20.8765879,27.42528 C19.997653,27.42528 19.6596288,27.7812 19.6596288,28.70184 L19.6596288,34.18608 C19.6596288,34.83 19.9920273,35.19144 20.5835697,35.19144 Z M21.5243879,31.28304 L21.5243879,28.86564 L22.5779606,28.86564 C23.3385152,28.86564 23.7610455,29.30616 23.7610455,30.07428 C23.7610455,30.96672 23.3328894,31.28304 22.3694485,31.28304 L21.5243879,31.28304 Z" id="Shape" fill="#A4C639" fill-rule="nonzero"></path>
                <path d="M32.4278242,35.18016 C32.9573636,35.18016 33.3235167,34.81872 33.3235167,34.29912 C33.3235167,34.0392 33.2390106,33.8472 32.9404864,33.44616 L31.0137242,30.83676 L32.8221061,28.87692 C33.0699985,28.60584 33.1601303,28.43064 33.1601303,28.19916 C33.1601303,27.7416 32.8052288,27.38016 32.3433182,27.38016 C32.0784288,27.38016 31.8644106,27.49872 31.6108924,27.77556 L29.0249591,30.59388 L28.9235758,30.59388 L28.9235758,28.37424 C28.9235758,27.73596 28.5855515,27.36888 27.9882636,27.36888 C27.3910955,27.36888 27.058697,27.73032 27.058697,28.37424 L27.058697,34.18608 C27.058697,34.81872 27.4079727,35.19144 28.0108864,35.19144 C28.596803,35.19144 28.9235758,34.83 28.9235758,34.18608 L28.9235758,32.7402 L29.6333788,32.0172 L31.5037636,34.5984 C31.7967818,35.00508 32.0784288,35.18016 32.4278242,35.18016 Z" id="Path" fill="#A4C639" fill-rule="nonzero"></path>
                <path d="M40.170303,11.1456 L40.170303,18 L42.6408485,18 C43.7420606,18 44.5751515,17.6928 45.149697,17.0784 C45.6955152,16.4832 45.9732121,15.648 45.9732121,14.5728 C45.9732121,13.488 45.7050909,12.6528 45.1688485,12.0768 C44.594303,11.4528 43.7612121,11.1456 42.66,11.1456 L40.170303,11.1456 Z M41.2140606,12.0384 L42.4684848,12.0384 C43.330303,12.0384 43.962303,12.24 44.3644848,12.6528 C44.7475152,13.056 44.9486061,13.6896 44.9486061,14.5728 C44.9486061,15.4368 44.7475152,16.0704 44.3549091,16.4832 C43.9527273,16.896 43.3111515,17.1072 42.4493333,17.1072 L41.2140606,17.1072 L41.2140606,12.0384 Z M49.2174788,12.9024 C48.4705697,12.9024 47.867297,13.152 47.4172364,13.6512 C46.9671758,14.1408 46.7469333,14.7648 46.7469333,15.5232 C46.7469333,16.272 46.9671758,16.896 47.4076606,17.376 C47.867297,17.8752 48.4705697,18.1344 49.2174788,18.1344 C49.9643879,18.1344 50.5676606,17.8752 51.027297,17.376 C51.4677818,16.896 51.6880242,16.272 51.6880242,15.5232 C51.6880242,14.7648 51.4582061,14.1408 51.0177212,13.6512 C50.5676606,13.152 49.9643879,12.9024 49.2174788,12.9024 Z M49.2174788,13.7376 C49.6866909,13.7376 50.0505697,13.92 50.3186909,14.2944 C50.5485091,14.6112 50.6634182,15.024 50.6634182,15.5232 C50.6634182,16.0128 50.5485091,16.416 50.3186909,16.7424 C50.0505697,17.1072 49.6866909,17.2992 49.2174788,17.2992 C48.7482667,17.2992 48.3843879,17.1072 48.1258424,16.7424 C47.8960242,16.4256 47.7906909,16.0224 47.7906909,15.5232 C47.7906909,15.024 47.8960242,14.6112 48.1258424,14.2944 C48.3843879,13.92 48.7482667,13.7376 49.2174788,13.7376 Z M52.125397,13.0368 L53.8011545,18 L54.7395788,18 L55.7737606,14.2848 L56.8079424,18 L57.7463667,18 L59.4221242,13.0368 L58.3017606,13.0368 L57.258003,16.7904 L56.2429727,13.0368 L55.3045485,13.0368 L54.2895182,16.7904 L53.2457606,13.0368 L52.125397,13.0368 Z M62.5578258,12.9024 C62.2514015,12.9024 61.9737045,12.96 61.7247348,13.0944 C61.4757652,13.2192 61.2555227,13.4016 61.0640076,13.6512 L61.0640076,13.0368 L60.0489773,13.0368 L60.0489773,18 L61.0640076,18 L61.0640076,15.0144 C61.1023106,14.6112 61.245947,14.2944 61.4757652,14.064 C61.6864318,13.8528 61.9449773,13.7568 62.23225,13.7568 C62.9983106,13.7568 63.3909167,14.1792 63.3909167,15.024 L63.3909167,18 L64.405947,18 L64.405947,14.9376 C64.405947,13.5744 63.7835227,12.9024 62.5578258,12.9024 Z M65.6811985,11.0112 L65.6811985,18 L66.6962288,18 L66.6962288,11.0112 L65.6811985,11.0112 Z M70.2392591,12.9024 C69.49235,12.9024 68.8890773,13.152 68.4390167,13.6512 C67.9889561,14.1408 67.7687136,14.7648 67.7687136,15.5232 C67.7687136,16.272 67.9889561,16.896 68.4294409,17.376 C68.8890773,17.8752 69.49235,18.1344 70.2392591,18.1344 C70.9861682,18.1344 71.5894409,17.8752 72.0490773,17.376 C72.4895621,16.896 72.7098045,16.272 72.7098045,15.5232 C72.7098045,14.7648 72.4799864,14.1408 72.0395015,13.6512 C71.5894409,13.152 70.9861682,12.9024 70.2392591,12.9024 Z M70.2392591,13.7376 C70.7084712,13.7376 71.07235,13.92 71.3404712,14.2944 C71.5702894,14.6112 71.6851985,15.024 71.6851985,15.5232 C71.6851985,16.0128 71.5702894,16.416 71.3404712,16.7424 C71.07235,17.1072 70.7084712,17.2992 70.2392591,17.2992 C69.770047,17.2992 69.4061682,17.1072 69.1476227,16.7424 C68.9178045,16.4256 68.8124712,16.0224 68.8124712,15.5232 C68.8124712,15.024 68.9178045,14.6112 69.1476227,14.2944 C69.4061682,13.92 69.770047,13.7376 70.2392591,13.7376 Z M75.9049955,12.9024 C75.292147,12.9024 74.7942076,13.008 74.4303288,13.2384 C74.0089955,13.488 73.7408742,13.8912 73.6355409,14.4288 L74.6409955,14.5152 C74.69845,14.2368 74.8420864,14.0352 75.0719045,13.9008 C75.2634197,13.7856 75.5219652,13.728 75.8379652,13.728 C76.5848742,13.728 76.9583288,14.0736 76.9583288,14.7648 L76.9583288,14.9664 L75.8475409,14.9952 C75.1197833,15.0144 74.5452379,15.1584 74.1430561,15.4464 C73.7025712,15.744 73.4823288,16.176 73.4823288,16.7328 C73.4823288,17.1456 73.6355409,17.4816 73.9515409,17.7408 C74.2388136,18 74.6409955,18.1344 75.1580864,18.1344 C75.5985712,18.1344 75.9816015,18.048 76.3071773,17.8944 C76.59445,17.7504 76.8338439,17.5488 77.0253591,17.2992 L77.0253591,18 L77.9637833,18 L77.9637833,14.832 C77.9637833,14.2272 77.8105712,13.7664 77.5137227,13.4496 C77.1689955,13.0848 76.632753,12.9024 75.9049955,12.9024 Z M76.9583288,15.7056 L76.9583288,15.9936 C76.9583288,16.3776 76.7955409,16.704 76.4891167,16.9632 C76.1826924,17.2224 75.8188136,17.3568 75.3879045,17.3568 C75.1293591,17.3568 74.9186924,17.2896 74.7654803,17.1648 C74.6026924,17.04 74.5260864,16.8864 74.5260864,16.6944 C74.5260864,16.08 74.9857227,15.7536 75.9145712,15.7344 L76.9583288,15.7056 Z M82.6878636,11.0112 L82.6878636,13.776 C82.2856818,13.1904 81.7781667,12.9024 81.1748939,12.9024 C80.4662879,12.9024 79.9013182,13.1616 79.4991364,13.68 C79.1161061,14.16 78.9341667,14.7648 78.9341667,15.4944 C78.9341667,16.2528 79.1256818,16.8768 79.5087121,17.3568 C79.9204697,17.8752 80.4950152,18.1344 81.2227727,18.1344 C81.8930758,18.1344 82.4101667,17.8848 82.7548939,17.4048 L82.7548939,18 L83.7028939,18 L83.7028939,11.0112 L82.6878636,11.0112 Z M81.4047121,13.728 C81.7781667,13.728 82.0845909,13.872 82.3335606,14.1792 C82.5825303,14.5056 82.7165909,14.9376 82.7165909,15.4752 L82.7165909,15.5616 C82.7165909,16.0608 82.6112576,16.464 82.4005909,16.7808 C82.1516212,17.1264 81.8164697,17.3088 81.3759848,17.3088 C80.8780455,17.3088 80.5045909,17.1264 80.2747727,16.7712 C80.0736818,16.464 79.9779242,16.0416 79.9779242,15.4944 C79.9779242,14.9472 80.0832576,14.5248 80.2939242,14.2368 C80.5333182,13.8912 80.9067727,13.728 81.4047121,13.728 Z" id="Shape" fill="#FAFAFA" fill-rule="nonzero"></path>
                <path d="M42.3631515,31.3824 L42.9544545,29.526 C43.3745909,28.2312 43.7480455,27.0144 44.1215,25.6572 L44.1837424,25.6572 C44.5727576,26.9988 44.9306515,28.2312 45.3663485,29.526 L45.9576515,31.3824 L42.3631515,31.3824 Z M47.4203485,36 L48.7896818,36 L44.8839697,24.5808 L43.4679545,24.5808 L39.577803,36 L40.8693333,36 L42.0363788,32.3964 L46.2844242,32.3964 L47.4203485,36 Z M50.3237182,36 L51.5841273,36 L51.5841273,29.838 C52.4555212,28.9332 53.0935061,28.4652 53.9804606,28.4652 C55.1475061,28.4652 55.6454455,29.1828 55.6454455,30.8052 L55.6454455,36 L56.9214152,36 L56.9214152,30.6492 C56.9214152,28.4964 56.1122636,27.3576 54.3539152,27.3576 C53.2024303,27.3576 52.3310364,28.0128 51.5218848,28.8084 L51.475203,28.8084 L51.3507182,27.576 L50.3237182,27.576 L50.3237182,36 Z M62.5772167,36.2028 C63.6042167,36.2028 64.5067318,35.6568 65.1758379,34.986 L65.2069591,34.986 L65.3314439,36 L66.3740045,36 L66.3740045,23.5824 L65.1135955,23.5824 L65.1135955,26.8896 L65.1758379,28.356 C64.4133682,27.732 63.7598227,27.3576 62.7639439,27.3576 C60.8344288,27.3576 59.1072015,29.0736 59.1072015,31.8036 C59.1072015,34.6116 60.4609742,36.2028 62.5772167,36.2028 Z M62.841747,35.1264 C61.301247,35.1264 60.429853,33.8628 60.429853,31.788 C60.429853,29.8224 61.5346561,28.434 62.9662318,28.434 C63.6975803,28.434 64.3511258,28.6992 65.1135955,29.37 L65.1135955,33.9252 C64.3666864,34.7208 63.6508985,35.1264 62.841747,35.1264 Z M69.3186697,36 L70.5790788,36 L70.5790788,30.5088 C71.1548212,29.0424 72.0262152,28.512 72.742003,28.512 C73.0687758,28.512 73.255503,28.5588 73.5355939,28.6524 L73.7845636,27.5448 C73.5044727,27.4044 73.255503,27.3576 72.8976091,27.3576 C71.9484121,27.3576 71.0925788,28.0596 70.5168364,29.1204 L70.4701545,29.1204 L70.3456697,27.576 L69.3186697,27.576 L69.3186697,36 Z M78.2529712,36.2028 C80.3069712,36.2028 82.1275621,34.5804 82.1275621,31.8036 C82.1275621,28.98 80.3069712,27.3576 78.2529712,27.3576 C76.1989712,27.3576 74.3939409,28.98 74.3939409,31.8036 C74.3939409,34.5804 76.1989712,36.2028 78.2529712,36.2028 Z M78.2529712,35.142 C76.7435924,35.142 75.7010318,33.8004 75.7010318,31.8036 C75.7010318,29.7912 76.7435924,28.434 78.2529712,28.434 C79.76235,28.434 80.8204712,29.7912 80.8204712,31.8036 C80.8204712,33.8004 79.76235,35.142 78.2529712,35.142 Z M84.4081485,36 L85.6685576,36 L85.6685576,27.576 L84.4081485,27.576 L84.4081485,36 Z M85.0461333,25.7664 C85.5440727,25.7664 85.9642091,25.4076 85.9642091,24.9084 C85.9642091,24.3624 85.5440727,24.0348 85.0461333,24.0348 C84.5170727,24.0348 84.1280576,24.3624 84.1280576,24.9084 C84.1280576,25.4076 84.5170727,25.7664 85.0461333,25.7664 Z M91.4190394,36.2028 C92.4460394,36.2028 93.3485545,35.6568 94.0176606,34.986 L94.0487818,34.986 L94.1732667,36 L95.2158273,36 L95.2158273,23.5824 L93.9554182,23.5824 L93.9554182,26.8896 L94.0176606,28.356 C93.2551909,27.732 92.6016455,27.3576 91.6057667,27.3576 C89.6762515,27.3576 87.9490242,29.0736 87.9490242,31.8036 C87.9490242,34.6116 89.302797,36.2028 91.4190394,36.2028 Z M91.6835697,35.1264 C90.1430697,35.1264 89.2716758,33.8628 89.2716758,31.788 C89.2716758,29.8224 90.3764788,28.434 91.8080545,28.434 C92.539403,28.434 93.1929485,28.6992 93.9554182,29.37 L93.9554182,33.9252 C93.2085091,34.7208 92.4927212,35.1264 91.6835697,35.1264 Z M103.010015,31.3824 L103.601318,29.526 C104.021455,28.2312 104.394909,27.0144 104.768364,25.6572 L104.830606,25.6572 C105.219621,26.9988 105.577515,28.2312 106.013212,29.526 L106.604515,31.3824 L103.010015,31.3824 Z M108.067212,36 L109.436545,36 L105.530833,24.5808 L104.114818,24.5808 L100.224667,36 L101.516197,36 L102.683242,32.3964 L106.931288,32.3964 L108.067212,36 Z M111.079506,36 L112.371036,36 L112.371036,31.3824 L114.300552,31.3824 C116.805809,31.3824 118.470794,30.2592 118.470794,27.888 C118.470794,25.4388 116.805809,24.5808 114.238309,24.5808 L111.079506,24.5808 L111.079506,36 Z M112.371036,30.3216 L112.371036,25.626 L114.051582,25.626 C116.136703,25.626 117.194824,26.172 117.194824,27.888 C117.194824,29.5884 116.198945,30.3216 114.113824,30.3216 L112.371036,30.3216 Z M120.819727,36 L122.111258,36 L122.111258,32.3184 L124.149697,29.916 L127.635273,36 L129.082409,36 L124.974409,28.902 L128.553348,24.5808 L127.075091,24.5808 L122.142379,30.462 L122.111258,30.462 L122.111258,24.5808 L120.819727,24.5808 L120.819727,36 Z" id="Shape" fill="#FAFAFA" fill-rule="nonzero"></path>
            </g>
        </g>
    </g>
</svg>