<?xml version="1.0" encoding="UTF-8"?>
<svg width="22px" height="12px" viewBox="0 0 22 12" version="1.1" xmlns="http://www.w3.org/2000/svg" xmlns:xlink="http://www.w3.org/1999/xlink">
    <!-- Generator: Sketch 55.2 (78181) - https://sketchapp.com -->
    <title>logo copy 2</title>
    <desc>Created with Sketch.</desc>
    <g id="KingSpeed---v5" stroke="none" stroke-width="1" fill="none" fill-rule="evenodd">
        <g id="logo-copy-2">
            <g id="Group-14">
                <path d="M3.92896374,0.336979592 L0.536503834,11.6630204 L17.2935535,11.6630204 L18.1152867,8.91958834 L15.9642992,5.80939998 L19.8300371,3.25962444 L21.3311195,0.336979592 L3.92896374,0.336979592 Z" id="Rectangle" stroke="#C3FB12" stroke-width="0.576" fill="#000000"></path>
                <path d="M3.84648671,10.0995918 L4.31639509,8.62939338 L10.7596347,8.6407026 C11.0885194,8.6407026 11.3654852,8.56342371 11.5905403,8.40886362 C11.8155955,8.25430352 11.9835459,8.00361834 12.0943967,7.65680056 C12.2052474,7.30998278 12.1975462,7.05929761 12.0712927,6.90473751 C11.9450393,6.75017741 11.7174737,6.67289852 11.388589,6.67289852 L7.37472147,6.67289852 C6.5450352,6.67289852 5.96481736,6.47121947 5.63405055,6.06785531 C5.30328373,5.66449116 5.26321045,5.0707631 5.51382951,4.28665334 C5.76444856,3.50254358 6.18405943,2.90881553 6.7726747,2.50545137 C7.36128997,2.10208722 8.0704301,1.90040816 8.90011637,1.90040816 L15.2012157,1.90040816 L14.7313074,3.37060662 L8.62442532,3.3592974 C8.30301533,3.3592974 8.02912309,3.43280658 7.80274039,3.57982716 C7.57635769,3.72684774 7.41135814,3.96245411 7.3077368,4.28665334 C7.20411546,4.61085257 7.21850485,4.84645894 7.3509054,4.99347952 C7.48330596,5.1405001 7.71020783,5.21400929 8.03161783,5.21400929 L12.0454854,5.21400929 C12.8751717,5.21400929 13.4541846,5.41945804 13.7825416,5.83036172 C14.1108987,6.24126539 14.1461524,6.85007225 13.888304,7.65680056 C13.6328653,8.45598936 13.2090374,9.06291137 12.6168074,9.4775848 C12.0245774,9.89225823 11.31363,10.0995918 10.4839437,10.0995918 L3.84648671,10.0995918 Z" id="S" fill="#FFFFFF" fill-rule="nonzero"></path>
            </g>
        </g>
    </g>
</svg>