<svg xmlns="http://www.w3.org/2000/svg" xmlns:xlink="http://www.w3.org/1999/xlink" width="20" height="17" viewBox="0 0 20 17">
    <defs>
        <path id="m8lf2v2sra" d="M0 0L19.98 0 19.98 16.895 0 16.895z"/>
    </defs>
    <g fill="none" fill-rule="evenodd">
        <g>
            <g>
                <g transform="translate(-1179.000000, -33.000000) translate(1001.000000, 25.000000) translate(178.000000, 8.000000)">
                    <mask id="7e0ipyj0yb" fill="#fff">
                        <use xlink:href="#m8lf2v2sra"/>
                    </mask>
                    <path fill="#FFF" d="M19.97 1.194c-.05.731-.46 3.29-.868 6.06l-1.277 8.2s-.102 1.201-.97 1.41c-.869.21-2.299-.73-2.554-.94-.204-.157-3.83-2.507-5.159-3.656-.358-.314-.766-.94.051-1.672 1.839-1.724 4.035-3.865 5.363-5.223.613-.627 1.226-2.09-1.328-.314l-7.202 4.963s-.817.522-2.35.052C2.145 9.604.357 8.977.357 8.977s-1.225-.784.869-1.62l11.901-5.014C14.301 1.821 18.285.15 18.285.15s1.839-.731 1.686 1.045" mask="url(#7e0ipyj0yb)"/>
                </g>
            </g>
        </g>
    </g>
</svg>
