<svg xmlns="http://www.w3.org/2000/svg" xmlns:xlink="http://www.w3.org/1999/xlink" width="16" height="14" viewBox="0 0 16 14">
    <defs>
        <path id="dby08z8wea" d="M0 0L15.984 0 15.984 13.913 0 13.913z"/>
    </defs>
    <g fill="none" fill-rule="evenodd" opacity=".539">
        <g>
            <g transform="translate(-177.000000, -3167.000000) translate(177.000000, 3167.000000)">
                <mask id="zw2bnw2dzb" fill="#fff">
                    <use xlink:href="#dby08z8wea"/>
                </mask>
                <path fill="#FFF" d="M15.976.983c-.04.602-.367 2.71-.694 4.99l-1.022 6.754s-.081.99-.776 1.161c-.695.172-1.839-.602-2.043-.774-.164-.129-3.065-2.065-4.127-3.011-.286-.258-.613-.774.04-1.377 1.472-1.42 3.229-3.183 4.291-4.301.49-.517.98-1.721-1.062-.259L4.82 8.253s-.654.43-1.88.043S.285 7.393.285 7.393s-.98-.646.695-1.334l9.52-4.13c.94-.43 4.128-1.806 4.128-1.806s1.471-.602 1.348.86" mask="url(#zw2bnw2dzb)"/>
            </g>
        </g>
    </g>
</svg>
