<svg xmlns="http://www.w3.org/2000/svg" width="19" height="15" viewBox="0 0 19 15">
    <g fill="none" fill-rule="evenodd">
        <g fill="#FFF">
            <g>
                <path d="M233.226 12.99l.04.649-.686-.08c-2.498-.304-4.681-1.337-6.534-3.071l-.907-.86-.233.635c-.494 1.416-.178 2.913.851 3.919.55.556.426.635-.521.304-.33-.105-.618-.185-.646-.145-.096.092.234 1.297.495 1.774.356.662 1.084 1.31 1.88 1.695l.673.304-.796.014c-.769 0-.796.013-.714.29.274.862 1.36 1.775 2.567 2.172l.851.278-.741.424c-1.098.61-2.389.953-3.68.98-.617.013-1.125.066-1.125.106 0 .132 1.675.874 2.65 1.165 2.924.86 6.397.49 9.006-.98 1.853-1.046 3.706-3.125 4.571-5.137.467-1.073.934-3.032.934-3.972 0-.61.04-.689.81-1.417.453-.424.878-.887.96-1.02.138-.251.124-.251-.576-.026-1.167.397-1.332.344-.755-.252.426-.423.934-1.191.934-1.416 0-.04-.206.026-.44.145-.247.133-.796.331-1.208.45l-.741.225-.673-.436c-.37-.239-.892-.504-1.167-.583-.7-.185-1.77-.159-2.402.053-1.716.596-2.801 2.132-2.677 3.813z" transform="translate(-1225.000000, -34.000000) translate(1001.000000, 25.000000)"/>
            </g>
        </g>
    </g>
</svg>
