<svg xmlns="http://www.w3.org/2000/svg" width="16" height="12" viewBox="0 0 16 12">
    <g fill="none" fill-rule="evenodd" opacity=".539">
        <g fill="#FFF">
            <path d="M452.769 3170.192l.035.52-.578-.064c-2.105-.244-3.943-1.07-5.503-2.458l-.763-.688-.197.508c-.416 1.134-.15 2.33.717 3.136.462.444.358.508-.44.243-.277-.085-.52-.148-.543-.116-.08.074.197 1.038.416 1.419.3.53.914 1.049 1.584 1.356l.567.244-.67.01c-.648 0-.671.01-.602.233.231.689 1.144 1.42 2.162 1.737l.717.223-.625.339c-.925.487-2.011.762-3.098.784-.52.01-.948.053-.948.084 0 .106 1.41.7 2.231.932 2.463.689 5.388.392 7.584-.783 1.56-.837 3.122-2.5 3.85-4.11.393-.858.786-2.426.786-3.178 0-.487.035-.55.682-1.133.382-.34.74-.71.81-.816.115-.201.104-.201-.486-.021-.983.317-1.122.275-.636-.202.358-.339.786-.953.786-1.133 0-.032-.173.021-.37.117-.208.106-.67.264-1.017.36l-.624.18-.567-.35c-.312-.19-.751-.402-.983-.466-.59-.148-1.49-.127-2.023.043-1.445.476-2.358 1.705-2.254 3.05z" transform="translate(-445.000000, -3167.000000)"/>
        </g>
    </g>
</svg>
