<?xml version="1.0" encoding="UTF-8"?>
<svg width="796px" height="216px" viewBox="0 0 796 216" version="1.1" xmlns="http://www.w3.org/2000/svg" xmlns:xlink="http://www.w3.org/1999/xlink">
    <!-- Generator: Sketch 55.2 (78181) - https://sketchapp.com -->
    <title>Group 21</title>
    <desc>Created with Sketch.</desc>
    <defs>
        <polygon id="path-1" points="0 215.793 795.58 215.793 795.58 0 0 0"></polygon>
    </defs>
    <g id="KingSpeed---v3" stroke="none" stroke-width="1" fill="none" fill-rule="evenodd">
        <g id="Group-21">
            <path d="M259.8192,89.9131 C262.9202,89.9131 266.0202,89.2941 269.1212,88.0541 C271.6012,86.8121 272.8402,84.3331 272.2212,81.2321 C272.2212,78.7521 270.9812,76.2711 269.1212,75.0311 C267.2602,73.7911 263.5402,72.5511 259.1992,72.5511 L238.7362,72.5511 L238.7362,89.9131 L259.8192,89.9131 Z M255.4782,58.2881 C258.5802,58.2881 261.6792,57.6691 264.7792,56.4291 C267.2602,55.1881 268.5012,52.7081 268.5012,50.2271 C268.5012,47.7461 267.2602,45.2671 265.4002,44.0261 C262.9202,42.1671 259.8192,41.5471 256.7182,42.1671 L239.3562,42.1671 L239.3562,58.9081 L255.4782,58.9081 L255.4782,58.2881 Z M221.9932,26.0441 L258.5802,26.0441 C267.8812,26.0441 274.7012,28.5241 279.0432,32.8641 C283.3822,36.5861 285.2432,41.5471 285.2432,46.5071 C285.2432,48.3671 285.2432,50.8481 284.6242,52.7081 C283.3822,55.8091 281.5222,58.9081 279.0432,61.3901 C277.8012,62.6301 276.5612,63.2501 275.3212,63.8691 C279.6632,65.1091 283.3822,67.5911 286.4832,70.6901 C288.9642,73.7911 290.2042,77.5121 290.2042,83.0931 C290.2042,86.1921 289.5842,89.9131 288.3432,92.3931 C287.1032,94.8751 284.6242,97.3541 282.1422,99.2151 C279.0432,101.0751 275.9412,102.3151 272.8402,103.5561 C269.1212,104.7961 264.7792,104.7961 260.4392,104.7961 L222.6132,104.7961 L222.6132,26.0441 L221.9932,26.0441 Z" id="Fill-1" fill="#F3BA2F"></path>
            <mask id="mask-2" fill="white">
                <use xlink:href="#path-1"></use>
            </mask>
            <g id="Clip-4"></g>
            <polygon id="Fill-3" fill="#F3BA2F" mask="url(#mask-2)" points="311.907 105.415 329.27 105.415 329.27 26.044 311.907 26.044"></polygon>
            <polygon id="Fill-5" fill="#F3BA2F" mask="url(#mask-2)" points="355.9334 26.044 372.0564 26.044 409.2614 75.031 409.2614 26.044 426.6234 26.044 426.6234 105.416 411.7434 105.416 372.6764 55.19 372.6764 105.416 355.9334 105.416"></polygon>
            <path d="M497.9354,72.5508 L487.3934,46.5068 L476.8514,72.5508 L497.9354,72.5508 Z M479.3314,25.4238 L495.4564,25.4238 L529.5594,105.4158 L511.5784,105.4158 L504.1354,87.4328 L470.6514,87.4328 L463.2094,105.4158 L445.2274,105.4158 L479.3314,25.4238 Z" id="Fill-6" fill="#F3BA2F" mask="url(#mask-2)"></path>
            <polygon id="Fill-7" fill="#F3BA2F" mask="url(#mask-2)" points="548.1629 26.044 564.2849 26.044 601.4909 75.031 601.4909 26.044 618.8529 26.044 618.8529 105.416 603.9719 105.416 565.5249 55.19 565.5249 105.416 548.1629 105.416"></polygon>
            <path d="M682.1024,106.6563 C676.5224,106.6563 670.9414,105.4163 665.9804,103.5553 C656.0584,99.2153 648.6194,91.7743 644.2784,81.8523 C642.4164,76.8913 641.1764,71.3103 641.1764,65.7303 C641.1764,55.1883 645.5174,44.6463 652.9584,36.5853 C656.6784,32.8643 661.0194,29.7643 665.9804,27.9043 C671.5614,25.4243 677.1424,24.8033 682.7224,24.8033 C685.8244,24.8033 689.5434,24.8033 692.6444,25.4243 C695.7464,26.0443 698.2254,26.6643 700.7064,27.9043 C703.1864,29.1443 705.6654,30.3863 707.5264,31.6243 C709.3864,32.8643 711.8684,34.7253 713.7274,36.5853 L703.1864,49.6073 C700.0854,47.1273 696.9864,44.6463 693.8844,42.7863 C690.7854,40.9273 687.0634,40.3063 683.3424,40.3063 C680.2434,40.3063 677.1424,40.9273 674.0414,42.1663 C670.9414,43.4063 668.4604,45.2663 666.6004,47.7473 C664.7414,50.2273 662.8794,52.7083 661.6394,55.8083 C660.3994,58.9083 659.7804,62.0103 659.7804,65.1103 C659.7804,68.2103 660.3994,71.9303 661.6394,75.0313 C662.8794,78.1323 664.1214,80.6123 666.6004,83.0923 C670.9414,88.0533 677.1424,90.5333 683.3424,90.5333 C687.0634,90.5333 691.4054,89.9133 695.1244,88.0533 C698.2254,86.1933 701.9474,83.7123 704.4264,81.2323 L715.5874,92.3943 C713.7274,94.2543 711.2484,96.7343 709.3864,98.5943 C706.9074,100.4553 704.4264,101.6953 701.9474,102.9353 C699.4654,104.1773 696.3664,105.4163 693.2644,106.0363 C688.9234,106.6563 685.2044,106.6563 682.1024,106.6563" id="Fill-8" fill="#F3BA2F" mask="url(#mask-2)"></path>
            <polygon id="Fill-9" fill="#F3BA2F" mask="url(#mask-2)" points="735.4305 26.044 794.9595 26.044 794.9595 41.546 752.1735 41.546 752.1735 57.669 789.9985 57.669 789.9985 73.171 752.1735 73.171 752.1735 89.914 795.5795 89.914 795.5795 105.416 735.4305 105.416"></polygon>
            <path d="M244.3172,183.5479 C239.9762,183.5479 235.6342,182.9279 231.9152,181.0689 C228.1942,179.8269 224.4742,177.3469 220.7542,174.2459 L226.9542,167.4249 C229.4352,169.9049 231.9152,171.1459 235.0152,173.0059 C238.1162,174.2459 241.2152,174.8659 244.3172,174.8659 C246.7962,174.8659 249.2772,174.2459 251.7572,173.0059 C253.6182,171.7659 254.2382,169.9049 254.2382,168.0449 C254.2382,167.4249 254.2382,166.1859 253.6182,165.5659 C252.9982,164.9449 252.3782,163.7049 251.7572,163.0849 C250.5182,162.4649 249.2772,161.8449 248.0382,161.2249 C246.1762,160.6049 243.6972,159.9859 241.8372,159.3639 C239.3562,158.7439 236.2542,158.1239 233.7752,156.8839 C231.9152,156.2639 229.4352,155.0239 228.1942,153.7829 C226.9542,152.5429 225.7142,151.3029 224.4742,149.4439 C223.2342,146.9619 223.2342,144.4819 223.2342,142.6209 C223.2342,140.1419 223.8542,138.2809 224.4742,135.8009 C225.0942,133.9409 226.9542,132.0799 228.1942,130.8399 C230.0542,129.5999 231.9152,128.3599 234.3952,127.7389 C236.8762,127.1189 239.3562,126.4989 241.8372,126.4989 C245.5572,126.4989 249.2772,127.1189 252.9982,128.3599 C256.0992,129.5999 259.1992,131.4599 262.2982,133.3199 L257.3382,140.7609 C254.8592,138.9019 252.3782,137.6609 249.8982,136.4209 C247.4172,135.1809 244.9372,135.1809 242.4572,135.1809 C239.9762,135.1809 237.4962,135.8009 235.6342,137.0409 C234.3952,138.2809 233.1552,140.1409 233.1552,142.0009 C233.1552,143.2409 233.1552,143.8609 233.7752,145.1019 C234.3952,145.7219 235.0152,146.9619 235.6342,147.5819 C236.8762,148.2019 238.1162,148.8219 239.9762,149.4439 C241.8372,150.0629 243.6972,150.6829 246.7962,151.3029 C249.2772,151.9229 251.7572,152.5429 254.8592,153.7829 C256.7182,154.4029 258.5792,155.6439 260.4392,156.8839 C261.6782,158.1239 262.9202,159.9859 263.5402,161.2249 C264.1602,163.0849 264.7802,164.9449 264.7802,167.4249 C264.7802,169.9049 264.1602,172.3859 263.5402,174.2459 C262.2982,176.1069 261.0592,177.9669 259.1992,179.8269 C257.3382,181.0689 255.4792,182.3079 252.9982,182.9279 C249.8982,182.9279 246.7962,183.5479 244.3172,183.5479" id="Fill-10" fill="#F3BA2F" mask="url(#mask-2)"></path>
            <polygon id="Fill-11" fill="#F3BA2F" mask="url(#mask-2)" points="275.3211 127.1192 285.8631 127.1192 302.6051 153.1632 319.9681 127.1192 330.5091 127.1192 330.5091 182.9282 320.5891 182.9282 320.5891 142.6212 303.2251 168.6652 302.6051 168.6652 285.2431 142.6212 285.2431 182.9282 275.3211 182.9282"></polygon>
            <path d="M378.2567,160.6045 L368.3357,138.2815 L359.0337,160.6045 L378.2567,160.6045 Z M363.9947,126.4995 L373.2967,126.4995 L397.4807,182.3075 L386.9397,182.3075 L381.3587,168.6655 L355.3147,168.6655 L349.7337,182.3075 L339.8117,182.3075 L363.9947,126.4995 Z" id="Fill-12" fill="#F3BA2F" mask="url(#mask-2)"></path>
            <path d="M431.5848,154.4034 C434.6868,154.4034 437.7858,153.7834 439.6478,151.9244 C441.5068,150.0624 442.7468,147.5824 442.7468,145.1014 C442.7468,142.6214 441.5068,140.1414 439.6478,138.2814 C437.1658,136.4214 434.0648,135.8004 430.9648,135.8004 L416.7028,135.8004 L416.7028,154.4034 L431.5848,154.4034 Z M407.4008,127.1194 L432.2048,127.1194 C435.3068,127.1194 438.4058,127.7394 441.5068,128.3594 C443.9868,128.9794 446.4678,130.8414 448.3268,132.7004 C449.5668,133.9404 450.8088,135.8004 452.0478,138.2814 C452.6678,140.1414 453.2878,142.6214 453.2878,145.1014 C453.2878,146.9624 452.6678,149.4424 452.0478,151.3024 C451.4278,153.1634 450.1888,154.4034 449.5668,156.2634 C448.3268,157.5044 447.0868,158.7444 445.2288,159.9844 C443.3668,161.2244 441.5068,161.8444 439.6478,162.4664 L454.5278,183.5494 L442.7468,183.5494 L429.1058,164.3254 L416.7028,164.3254 L416.7028,183.5494 L406.7808,183.5494 L407.4008,127.1194 Z" id="Fill-13" fill="#F3BA2F" mask="url(#mask-2)"></path>
            <polygon id="Fill-14" fill="#F3BA2F" mask="url(#mask-2)" points="478.7117 135.8008 460.7307 135.8008 460.7307 127.1188 505.9957 127.1188 505.9957 135.8008 488.0137 135.8008 488.0137 182.9278 478.0917 182.9278"></polygon>
            <path d="M566.1453,183.5479 C562.4243,183.5479 558.7053,182.9279 554.9833,181.0689 C548.1643,177.9669 542.5833,173.0059 540.1013,166.1859 C538.8613,162.4649 537.6223,158.7439 538.2423,155.0239 C538.2423,151.3029 538.8613,147.5819 540.1013,143.8609 C542.5833,137.0409 548.1643,131.4599 554.9833,128.3599 C558.7053,127.1189 562.4243,125.8789 566.7653,125.8789 C569.2473,125.8789 571.7263,125.8789 573.5863,126.4989 C575.4473,127.1189 577.3063,127.7389 579.1663,128.3599 C581.0273,128.9799 582.2673,130.2199 584.1273,130.8399 C585.3693,132.0799 587.2283,133.3199 588.4683,134.5609 L582.2673,142.0009 C580.4083,140.1419 577.9263,138.2809 575.4473,137.0409 C572.9663,135.8009 569.8673,135.1809 566.7653,135.1809 C564.2863,135.1809 561.8043,135.8009 559.3253,136.4209 C556.8433,137.6609 554.9833,138.9019 553.1243,140.7619 C551.2623,142.6209 550.0233,144.4819 549.4033,146.9619 C548.7843,149.4439 548.1643,151.9229 548.1643,154.4029 C548.1643,156.8839 548.7843,159.3639 549.4033,161.8449 C550.0233,164.3249 551.2633,166.1859 553.1243,168.0449 C554.9833,169.9049 556.8433,171.1459 559.3253,172.3859 C561.8043,173.6259 564.2863,174.2459 566.7653,173.6259 C569.8673,173.6259 572.9663,173.0059 575.4473,171.7659 C577.9263,170.5269 580.4083,168.6649 582.8873,166.1859 L589.0883,172.3859 L584.7493,176.7269 C582.8873,177.9669 581.6473,179.2069 579.7883,179.8269 C577.9263,180.4469 576.0673,181.6879 573.5863,181.6879 C571.1063,183.5479 568.6253,183.5479 566.1453,183.5479" id="Fill-15" fill="#F3BA2F" mask="url(#mask-2)"></path>
            <polygon id="Fill-16" fill="#F3BA2F" mask="url(#mask-2)" points="599.0106 127.1192 608.3126 127.1192 608.3126 150.0622 634.9756 150.0622 634.9756 127.1192 644.8986 127.1192 644.8986 182.9282 634.9756 182.9282 634.9756 159.3642 608.3126 159.3642 608.3126 182.9282 599.0106 182.9282"></polygon>
            <path d="M692.6443,160.6045 L683.3423,138.2815 L674.0413,160.6045 L692.6443,160.6045 Z M679.0023,126.4995 L688.3033,126.4995 L712.4883,182.3075 L701.9473,182.3075 L696.3663,168.6655 L670.3223,168.6655 L664.7413,182.3075 L654.8183,182.3075 L679.0023,126.4995 Z" id="Fill-17" fill="#F3BA2F" mask="url(#mask-2)"></path>
            <polygon id="Fill-18" fill="#F3BA2F" mask="url(#mask-2)" points="722.409 182.929 732.33 182.929 732.33 127.119 722.409 127.119"></polygon>
            <polygon id="Fill-19" fill="#F3BA2F" mask="url(#mask-2)" points="747.2127 127.1192 755.8957 127.1192 785.6577 165.5652 785.6577 127.1192 795.5797 127.1192 795.5797 182.9282 787.5197 182.9282 757.1337 143.2412 757.1337 182.9282 747.2127 182.9282"></polygon>
            <path d="M91.7742,0.0001 L148.2022,32.8651 L127.7392,45.2671 L92.3942,24.1841 L56.4282,45.2671 L35.9652,32.8651 L91.7742,0.0001 Z M91.7742,41.5461 L112.8572,53.9481 L91.7742,66.3501 L71.3112,53.9481 L91.7742,41.5461 Z M163.0852,41.5461 L184.1682,53.9481 L184.1682,78.1321 L163.0852,90.5341 L163.0852,66.3501 L142.6222,53.9481 L163.0852,41.5461 Z M20.4632,41.5461 L41.5462,53.9481 L20.4632,66.3501 L20.4632,90.5341 L0.0002,78.1321 L0.0002,53.9481 L20.4632,41.5461 Z M148.2022,116.5771 L148.2022,140.7611 L127.7392,153.1631 L127.7392,128.9791 L148.2022,116.5771 Z M35.3452,116.5771 L55.8082,128.9791 L55.8082,153.1631 L35.3452,140.7611 L35.3452,116.5771 Z M127.1192,62.6291 L148.2022,75.0311 L148.2022,99.2151 L112.8572,120.2981 L112.8572,162.4651 L92.3942,174.8661 L71.9312,162.4651 L71.9312,120.2981 L35.3452,99.2151 L35.3452,75.0311 L56.4282,62.6291 L91.7742,83.7121 L127.1192,62.6291 Z M183.5472,95.4941 L183.5472,161.8451 L127.1192,194.7091 L127.1192,170.5251 L162.4642,149.4421 L162.4642,107.8951 L183.5472,95.4941 Z M0.0002,95.4941 L20.4632,107.8951 L20.4632,149.4421 L55.8082,170.5251 L55.8082,194.7091 L0.0002,161.8451 L0.0002,95.4941 Z M112.8572,179.2071 L112.8572,203.3911 L91.7742,215.7931 L71.3112,203.3911 L71.3112,179.2071 L91.7742,191.6091 L112.8572,179.2071 Z" id="Fill-20" fill="#F3BA2F" mask="url(#mask-2)"></path>
        </g>
    </g>
</svg>