<svg width="33" height="38" xmlns="http://www.w3.org/2000/svg">
    <g fill="#FFF" fill-rule="evenodd">
        <path d="M18.692 8.203c0 2.583-.47 4.837-1.168 6.11a5.052 5.052 0 0 0-1.19-.137c-.486 0-.963.06-1.411.19-.72-1.264-1.198-3.55-1.198-6.163C13.725 4.22 16.212 0 16.212 0s2.48 4.22 2.48 8.203M12.3 23.4c-.903 1.028-2.298 2.148-3.982 3.123C4.883 28.52 0 28.466 0 28.466s2.403-4.275 5.831-6.262c1.843-1.066 3.663-1.745 5.05-1.965a5.489 5.489 0 0 0 1.418 3.16M32.645 28.328s-4.876.054-8.311-1.942c-1.646-.952-3.019-2.042-3.914-3.047a5.415 5.415 0 0 0 1.374-3.237c1.387.22 3.192.906 5.027 1.965 3.427 1.996 5.824 6.261 5.824 6.261M18.89 19.683a2.562 2.562 0 0 1-2.556 2.567 2.562 2.562 0 0 1-2.556-2.567 2.564 2.564 0 0 1 2.556-2.576c1.41 0 2.555 1.15 2.555 2.576"/>
        <path d="M20.005 19.684a3.682 3.682 0 0 1-3.671 3.689 3.682 3.682 0 0 1-3.672-3.689c0-2.046 1.645-3.699 3.672-3.699 2.026 0 3.671 1.653 3.671 3.7M19.178 37.515H13.62l1.642-13.14h2.275z"/>
    </g>
</svg>
