<svg width="31" height="31" xmlns="http://www.w3.org/2000/svg">
    <path d="M29.88 10.135c1.471-1.472 1.477-3.906.111-5.717l-4.234 4.235c-.79.789-2.193.666-3.135-.275-.942-.942-1.065-2.345-.275-3.136l4.234-4.234c-1.81-1.365-4.244-1.36-5.716.112l-2.682 2.682c-1.523 1.523-1.926 4.526-.475 6.41l-7.494 7.497c-1.885-1.453-4.888-1.05-6.412.473l-2.681 2.683c-1.473 1.472-1.478 3.906-.112 5.716l4.234-4.234c.79-.79 2.193-.668 3.135.274.942.942 1.065 2.346.275 3.136L4.42 29.99c1.81 1.367 4.244 1.362 5.716-.11l2.683-2.683c1.522-1.523 1.926-4.526.474-6.41l7.495-7.496c1.885 1.452 4.888 1.049 6.41-.474l2.683-2.682z" fill="#FFF" fill-rule="evenodd"/>
</svg>
