<svg width="33" height="33" xmlns="http://www.w3.org/2000/svg">
    <g fill="#FFF" fill-rule="evenodd">
        <path d="m27.545 4.886-2.558 4.531a11.175 11.175 0 0 1 2.348 6.874c0 6.183-5.012 11.195-11.202 11.195-6.183 0-11.195-5.012-11.195-11.195 0-2.409.757-4.638 2.048-6.46L4.39 5.23A16.084 16.084 0 0 0 0 16.291c0 8.906 7.226 16.132 16.133 16.132 8.914 0 16.132-7.226 16.132-16.132 0-4.457-1.801-8.478-4.72-11.405"/>
        <path d="M28.592 13.516a50.932 50.932 0 0 0-24.912-.002l-.004.002v6.322l5.718.605a3.245 3.245 0 0 1 2.87 2.767l.793 5.521h6.154l.792-5.521a3.245 3.245 0 0 1 2.87-2.767l5.719-.605v-6.322zM15.925 7.26c-1.236 0-1.622.928-1.596 1.664.067 1.97 3.127 1.97 3.195.001.026-.737-.361-1.665-1.6-1.665"/>
        <path d="m21.022 7.456-.046.057c-.402.504-1.15.486-1.567-.006a4.565 4.565 0 0 0-3.494-1.622c-1.4 0-2.653.63-3.492 1.622-.416.492-1.164.509-1.566.006l-.047-.058a.99.99 0 0 1-.006-1.246 6.633 6.633 0 0 1 5.111-2.398c2.055 0 3.893.933 5.113 2.4.298.357.285.882-.006 1.245"/>
        <path d="M23.44 4.433a.966.966 0 0 1-1.45.066 8.448 8.448 0 0 0-6.075-2.566c-2.38 0-4.534.983-6.073 2.566a.965.965 0 0 1-1.448-.066l-.002-.001a.965.965 0 0 1 .053-1.272A10.378 10.378 0 0 1 15.915 0c2.932 0 5.58 1.212 7.471 3.162a.964.964 0 0 1 .053 1.271"/>
    </g>
</svg>
