<svg width="34" height="34" xmlns="http://www.w3.org/2000/svg">
    <g fill="#FFF" fill-rule="evenodd">
        <path d="m22.617 9.604-1.479.966A6.695 6.695 0 0 0 18.145 9.4c-1.976-.27-3.974.38-5.342 1.654a6.191 6.191 0 0 0-1.998 4.852c.08 1.763.989 3.373 2.306 4.34l-2.987 3.425c-2.152-2.035-3.286-5.013-3.059-7.845.183-2.833 1.676-5.497 3.902-7.077 2.21-1.603 5.085-2.123 7.603-1.457a8.759 8.759 0 0 1 4.047 2.313"/>
        <path d="M16.994 29.845c-7.097 0-12.85-5.753-12.85-12.85 0-7.098 5.753-12.851 12.85-12.851 7.098 0 12.85 5.753 12.85 12.85 0 7.098-5.752 12.85-12.85 12.85m0-29.844C7.61 0 0 7.609 0 16.994 0 26.381 7.609 33.99 16.994 33.99c9.386 0 16.995-7.608 16.995-16.995C33.989 7.61 26.38 0 16.994 0"/>
        <path d="M16.137 17.792c.47.54 1.299.57 1.805.063l5.904-5.893c.268-.267.289-.681.065-.939-.224-.257-.638-.293-.94-.065l-6.65 5.038a1.235 1.235 0 0 0-.184 1.796"/>
    </g>
</svg>
